<svg version="1.2" xmlns="http://www.w3.org/2000/svg" xmlns:xlink="http://www.w3.org/1999/xlink" overflow="visible" preserveAspectRatio="none" viewBox="0 0 24 24" width="42" height="42"><g><path xmlns:default="http://www.w3.org/2000/svg" id="phone-square" d="M17.33,15.09c-0.01,0.36-0.08,0.72-0.23,1.05c-0.22,0.39-0.58,0.68-1,0.83  c-0.42,0.21-0.89,0.33-1.36,0.35h-0.35l-0.32-0.05l-0.34-0.09l-0.31-0.1l-0.34-0.13l-0.31-0.11c-1.26-0.5-2.4-1.27-3.34-2.25  c-0.98-0.94-1.75-2.08-2.25-3.34l-0.11-0.31L6.94,10.6l-0.1-0.31c-0.04-0.11-0.07-0.23-0.09-0.34c0-0.09-0.02-0.19-0.05-0.32  c-0.01-0.12-0.01-0.23,0-0.35c0-0.48,0.1-0.96,0.3-1.4c0.15-0.42,0.44-0.78,0.83-1c0.33-0.15,0.69-0.22,1.05-0.23h0.17  C9.12,6.7,9.18,6.77,9.22,6.84C9.31,6.97,9.4,7.12,9.48,7.26l0.3,0.53L10,8.27l0.16,0.3l0.14,0.2c0.06,0.08,0.12,0.17,0.16,0.26  c0.03,0.07,0.05,0.14,0.05,0.22c-0.02,0.15-0.1,0.28-0.21,0.38c-0.14,0.15-0.3,0.29-0.47,0.41c-0.17,0.12-0.32,0.25-0.47,0.4  c-0.11,0.09-0.18,0.21-0.21,0.35c-0.01,0.06-0.01,0.11,0,0.17l0.07,0.16l0.1,0.18l0.09,0.15c0.36,0.65,0.8,1.25,1.32,1.78  c0.52,0.52,1.12,0.97,1.77,1.32l0.15,0.09l0.18,0.1L13,14.79c0.06,0.01,0.11,0.01,0.17,0c0.14-0.03,0.26-0.1,0.35-0.21  c0.15-0.15,0.28-0.3,0.4-0.47c0.12-0.17,0.26-0.33,0.41-0.47c0.1-0.11,0.23-0.19,0.38-0.21c0.08,0,0.15,0.02,0.22,0.05  c0.09,0.04,0.18,0.1,0.26,0.16l0.2,0.14L15.73,14l0.47,0.26l0.49,0.28c0.14,0.08,0.29,0.17,0.42,0.26c0.07,0.04,0.14,0.1,0.19,0.17  c0.01,0.06,0.01,0.11,0,0.17l0,0L17.33,15.09z M19.12,4.88C18.56,4.31,17.8,3.99,17,4H7C5.34,4,4,5.34,4,7v10c0,1.66,1.34,3,3,3h10  c1.66,0,3-1.34,3-3V7C20.01,6.2,19.69,5.44,19.12,4.88z" style="fill: rgb(18, 18, 18);" vector-effect="non-scaling-stroke"/></g></svg>